<?xml version="1.0" standalone="no"?>
<!DOCTYPE svg PUBLIC "-//W3C//DTD SVG 20010904//EN"
 "http://www.w3.org/TR/2001/REC-SVG-20010904/DTD/svg10.dtd">
<svg version="1.0" xmlns="http://www.w3.org/2000/svg"
 width="2250.000000pt" height="2250.000000pt" viewBox="0 0 2250.000000 2250.000000"
 preserveAspectRatio="xMidYMid meet">

<g transform="translate(0.000000,2250.000000) scale(0.100000,-0.100000)"
fill="#000000" stroke="none">
<path d="M2990 12173 c0 -16 -16 -422 -35 -903 -19 -481 -35 -896 -35 -922 l0
-48 254 0 254 0 7 318 c4 174 11 418 14 542 l6 225 220 -543 220 -542 153 2
154 3 217 532 c120 293 220 535 223 538 3 3 8 -201 12 -452 3 -252 9 -495 13
-540 l6 -83 254 0 254 0 -5 78 c-4 42 -20 446 -36 897 -17 451 -33 844 -36
873 l-5 52 -282 0 -282 0 -222 -523 c-123 -287 -232 -551 -244 -586 l-22 -64
-31 89 c-18 49 -128 313 -245 587 l-213 497 -284 0 -284 0 0 -27z"/>
<path d="M5530 11250 l0 -950 715 0 715 0 0 225 0 225 -460 0 -460 0 0 135 0
135 380 0 380 0 0 215 0 215 -380 0 -380 0 0 145 0 145 445 0 445 0 0 230 0
230 -700 0 -700 0 0 -950z"/>
<path d="M7210 11251 l0 -951 380 0 c210 0 424 5 477 11 407 45 713 252 833
562 55 142 64 196 64 382 -1 182 -12 249 -68 385 -91 226 -291 405 -548 489
-182 60 -219 64 -695 68 l-443 5 0 -951z m941 470 c189 -61 287 -194 304 -412
19 -238 -68 -423 -238 -502 -89 -42 -181 -57 -346 -57 l-151 0 0 501 0 501
183 -4 c151 -4 193 -9 248 -27z"/>
<path d="M9200 11250 l0 -950 250 0 250 0 0 950 0 950 -250 0 -250 0 0 -950z"/>
<path d="M10579 12173 c-6 -16 -163 -435 -349 -933 -186 -498 -342 -913 -345
-923 -7 -16 8 -17 266 -15 l273 3 51 145 51 145 408 0 409 0 51 -147 51 -148
268 0 c147 0 267 4 267 8 0 6 -659 1784 -695 1875 -7 16 -33 17 -351 17 l-344
0 -11 -27z m492 -803 c55 -157 99 -291 99 -297 0 -10 -54 -13 -240 -13 -132 0
-240 3 -240 6 0 3 47 139 103 302 57 164 107 309 111 324 3 15 11 40 17 55 11
28 12 27 31 -32 12 -33 65 -188 119 -345z"/>
<path d="M12160 11250 l0 -950 255 0 255 0 2 218 3 217 240 6 c257 6 335 18
460 73 263 117 400 369 382 701 -19 320 -180 542 -462 631 -150 47 -234 54
-702 54 l-433 0 0 -950z m941 479 c108 -51 163 -140 163 -264 1 -96 -20 -153
-78 -210 -75 -75 -116 -85 -337 -85 l-179 0 0 296 0 296 188 -4 c177 -3 190
-4 243 -29z"/>
<path d="M13996 11262 c-192 -515 -351 -943 -354 -949 -3 -10 55 -13 269 -13
l274 0 51 148 51 147 405 3 406 2 52 -150 53 -150 272 0 272 0 -353 948 -352
947 -349 2 -348 3 -349 -938z m826 129 c59 -172 108 -318 108 -322 0 -5 -108
-9 -240 -9 -132 0 -240 2 -240 4 0 3 47 139 104 303 57 164 111 323 122 353
l18 55 9 -35 c6 -19 59 -176 119 -349z"/>
<path d="M15920 11251 l0 -951 255 0 255 0 0 265 0 265 129 0 130 0 188 -262
188 -263 273 -3 272 -2 0 22 c0 14 -83 135 -210 307 l-210 284 48 25 c137 71
226 177 279 329 24 71 27 91 27 223 0 110 -4 161 -18 210 -61 220 -206 370
-431 445 -139 46 -158 48 -677 52 l-498 4 0 -950z m938 494 c69 -21 131 -70
161 -130 21 -40 26 -63 25 -124 0 -116 -44 -185 -149 -233 -46 -21 -66 -23
-257 -26 l-208 -3 0 265 0 266 188 0 c140 0 202 -4 240 -15z"/>
<path d="M17790 11250 l0 -950 250 0 250 0 0 178 0 177 123 147 c67 81 124
147 127 147 3 0 109 -145 235 -322 l231 -322 287 -3 c283 -2 287 -2 287 18 0
11 -157 245 -350 520 -192 275 -351 503 -352 508 -2 4 149 189 335 411 188
225 337 411 337 422 0 18 -10 19 -274 19 l-274 0 -348 -414 c-192 -228 -352
-415 -356 -415 -5 -1 -8 186 -8 414 l0 415 -250 0 -250 0 0 -950z"/>
</g>
</svg>
